<?xml version="1.0" encoding="UTF-8"?><svg id="Layer_1" xmlns="http://www.w3.org/2000/svg" viewBox="0 0 647.97 169.3"><defs><style>.cls-1{fill:#fff;}</style></defs><g id="GdAdy7"><path class="cls-1" d="m211.7,150.89c0,1.65.03,3.31-.03,4.96-.01.31-.29.7-.57.9-1.2.85-2.4,1.71-3.67,2.43-.46.26-1.19.32-1.7.15-.97-.31-1.85-.88-2.79-1.29-1.07-.47-1.52-1.21-1.49-2.41.07-2.78.06-2.85-2.29-4.22-3.96-2.31-7.98-4.51-11.96-6.78-.65-.37-1.16-.37-1.82.02-5.02,2.97-10.07,5.9-15.11,8.85-.89.52-1.74,1.16-2.7,1.48-.66.22-1.59.21-2.19-.1-3.16-1.64-6.26-3.4-9.37-5.14-2.69-1.51-5.37-3.04-8.03-4.6-1.06-.63-1.94-.64-3.04.06-4.52,2.87-9.1,5.64-13.68,8.41-.94.57-1.96,1.01-2.96,1.47-.81.38-1.62.34-2.41-.12-3.4-1.96-6.8-3.92-10.2-5.87-2.16-1.24-4.34-2.46-6.47-3.75-1.19-.72-2.27-.73-3.48,0-3.42,2.07-6.89,4.07-10.33,6.11-2.15,1.27-4.32,2.5-6.4,3.86-.93.61-1.69.51-2.53-.01-1.44-.89-2.87-1.79-4.32-2.67-4.29-2.61-8.58-5.23-12.89-7.81-.27-.16-.79-.12-1.09.04-1.63.83-3.27,1.66-4.84,2.62-3.04,1.85-6.05,3.76-9.03,5.71-.36.23-.76,1.02-.63,1.29.62,1.22-.09,2.13-.51,3.11-.33.77-.69,1.55-1.2,2.2-.36.45-.96.92-1.51.98-1.24.14-2.5,0-3.75.05-.82.04-1.32-.3-1.68-.98-.58-1.1-1.23-2.16-1.74-3.3-.17-.38-.09-.98.09-1.39.38-.85.31-1.36-.56-1.9-3.92-2.46-7.78-5-11.67-7.51-.93-.6-1.31-.47-1.97.66-1.89,3.23-3.76,6.47-5.64,9.7-.72,1.24-1.48,2.45-2.13,3.72-.17.34-.11.9.04,1.28.33.81.8,1.57,1.2,2.35.07.13.19.31.15.4-.69,1.51-1.3,3.08-2.17,4.48-.3.48-1.24.67-1.93.77-1.12.17-2.28.2-3.41.19-.35,0-.81-.27-1.02-.56-.86-1.19-1.68-2.41-2.42-3.67-.2-.34-.24-.95-.07-1.31.6-1.33,1.27-2.63,2-3.89.19-.33.67-.61,1.06-.7.89-.2,1.83-.19,2.71-.42.51-.14,1.14-.45,1.39-.88,2.3-3.92,4.54-7.87,6.76-11.83.57-1.02.25-1.47-.93-1.45-4.56.09-9.12.17-13.69.32-.42.01-1.02.36-1.22.73-1.29,2.38-3.25,3.08-5.86,2.8-1.23-.13-1.97-.49-2.42-1.64-.33-.85-.69-1.74-1.25-2.44-.55-.69-.45-1.26-.11-1.91.69-1.29,1.36-2.61,2.14-3.84.22-.35.8-.62,1.24-.65,1.25-.08,2.5.02,3.75-.04.69-.04,1.22.18,1.4.79.85,2.74,2.83,2.99,5.33,2.82,4.07-.28,8.17-.27,12.25-.34.86-.01,1.15-.31,1.13-1.18-.15-6.11-.25-12.21-.42-18.32-.01-.37-.34-.87-.67-1.08-5.39-3.43-10.8-6.83-16.2-10.24-.19-.12-.36-.26-.55-.37-1.26-.71-1.61-1.81-1.63-3.22-.07-6.63-.19-13.25-.39-19.88-.05-1.83.59-3.03,2.15-3.95,3.73-2.21,7.42-4.49,11.08-6.8,1.64-1.04,3.18-2.23,4.81-3.31.64-.42.86-.95.85-1.66-.11-5.23-.21-10.45-.36-15.68-.01-.4-.38-.95-.74-1.17-3.52-2.18-2.85-1.04-2.91-5.2-.04-2.68,0-2.67,2.42-3.81.99-.46,1.96-1.36,2.93-1.34.92.02,1.75,1.12,2.72,1.52,1.7.71,2.47,1.83,2.14,3.68-.07.39-.08.82,0,1.21.37,1.74-.4,2.78-1.95,3.39-1.27.5-1.58,1.37-1.49,2.76.31,4.29.46,8.6.58,12.9.05,1.79.59,3.07,2.21,4.06,5.18,3.16,10.25,6.48,15.4,9.68,1.02.64,1.43,1.42,1.46,2.6.12,4.82.29,9.64.47,14.46.07,1.91.14,3.83.31,5.73.04.44.37,1.01.73,1.23,5.37,3.25,10.78,6.44,16.16,9.68.92.55,1.59.45,2.49-.11,4.21-2.6,8.48-5.09,12.72-7.65,1.07-.65,2.11-1.35,3.1-2.1.29-.22.51-.71.52-1.08.09-5.12.17-10.24.16-15.35,0-.53-.47-1.36-.93-1.54-2.48-.97-3.16-2.78-2.75-5.22.05-.32.05-.67,0-.99-.15-1.12.34-1.8,1.35-2.24,1-.44,1.94-1.05,2.96-1.43.47-.17,1.16-.1,1.63.12,1.26.59,2.49,1.26,3.65,2.03.4.27.73.91.78,1.42.12,1.17,0,2.36.07,3.53.05.82-.31,1.32-.96,1.7-.51.29-.98.7-1.52.87-1.27.4-1.34,1.31-1.28,2.42.26,4.92.46,9.85.73,14.77.02.43.38.98.74,1.22,4.84,3.14,9.7,6.23,14.56,9.33.74.47,1.51.91,2.25,1.37.78.49,1.2,1.08,1.22,2.12.16,6.62.43,13.25.63,19.87.03,1.01.51,1.69,1.28,2.17,4.41,2.7,8.83,5.39,13.26,8.05.88.53,1.82.95,2.72,1.44.88.48,1.65.3,2.48-.2,5.08-3.02,10.18-6.01,15.29-9,.69-.41,1.41-.9,2.17-1.03.76-.13,1.72-.07,2.37.29,3.31,1.82,6.56,3.77,9.83,5.67,2.35,1.37,4.7,2.72,7.04,4.1.98.58,1.89.24,2.71-.23,2.83-1.63,5.62-3.33,8.42-4.99,3.15-1.87,6.31-3.74,9.48-5.57.24-.14.71-.09.97.06,4.97,2.91,9.94,5.83,14.88,8.81.92.55,1.73.44,2.43-.14,1.54-1.29,3.02-1.34,4.59-.11.43.33.97.53,1.45.79.48.26.96.52,1.56.85ZM46.44,111.06c-.43.19-.67.28-.88.4-3.52,2.11-7.06,4.2-10.56,6.35-1.31.8-2.6,1.67-3.76,2.67-.51.45-.92,1.32-.92,2,.05,5.77.21,11.55.34,17.32.03,1.37.55,2.45,1.78,3.19,1.83,1.09,3.61,2.25,5.43,3.35,2.23,1.36,4.47,2.69,6.71,4.02.24.14.56.3.8.25,2.16-.53,4.3-.6,6.45.07.26.08.65-.06.9-.22,4.36-2.8,8.71-5.6,13.04-8.46.36-.24.69-.82.69-1.24,0-6.33-.03-12.67-.11-19,0-.53-.34-1.27-.76-1.53-4.72-2.91-9.48-5.74-14.23-8.58-.42-.25-.9-.39-1.49-.65.24,2.35.41,4.5.68,6.64.43,3.34.91,6.67,1.38,10.01.1.68-.19.96-.85.94-1.07-.02-2.14.04-3.2-.07-2.95-.32-3-.35-2.72-3.34.42-4.38.93-8.75,1.39-13.13.03-.27-.06-.55-.12-1Zm-15.8,5.45c.56-.23.9-.34,1.21-.51,1.09-.6,2.19-1.2,3.26-1.84,3.33-2,6.66-4.01,9.97-6.05,1.11-.69,1.57-1.68,1.51-3.07-.26-5.95-.46-11.91-.61-17.87-.03-1.01-.38-1.66-1.2-2.16-2.12-1.31-4.22-2.66-6.36-3.94-3.12-1.87-6.25-3.71-9.4-5.52-.3-.17-.88-.19-1.18-.02-1.81,1.04-3.6,2.13-5.36,3.25-3.5,2.23-6.97,4.5-10.46,6.75-.68.44-1.15.93-1.14,1.84.09,6.33.14,12.66.24,18.99,0,.34.22.8.49.99,1.35.96,2.71,1.9,4.13,2.75,3.27,1.97,6.57,3.88,9.86,5.8.42.25.89.42,1.56.74-.04-.85-.03-1.46-.11-2.06-.18-1.38-.41-2.76-.62-4.14-.45-3.01-.89-6.02-1.36-9.02-.12-.78-.06-1.29.91-1.29,1.91,0,3.83-.02,5.74-.11.98-.05,1.1.38.98,1.19-.57,3.96-1.11,7.92-1.65,11.88-.14,1.04-.25,2.09-.41,3.42Zm74.66,14.49c-.11,0-.23,0-.34,0,0-3.28.03-6.55-.03-9.83,0-.46-.32-1.1-.69-1.33-5.07-3.09-10.16-6.14-15.27-9.16-.88-.52-1.87-.64-2.84-.09-.86.49-1.76.92-2.6,1.44-4.27,2.67-8.51,5.37-12.79,8.03-.71.44-1.01.96-.99,1.8.17,5.55.49,11.11.36,16.66-.05,2.43.94,3.59,2.8,4.7,4.39,2.59,8.71,5.3,13.02,8.02,1.09.68,2,.9,3.19.17,5.09-3.13,10.23-6.2,15.35-9.27.6-.36.83-.8.82-1.52-.04-3.2-.02-6.4-.02-9.6Z"/><path class="cls-1" d="m24.37,80.23c1.19-.76,2.14-1.46,3.18-1.96.35-.17,1.03.03,1.42.27,4.61,2.87,9.18,5.8,13.8,8.66,1.08.67,1.55,1.49,1.4,2.72-.06.47-.08.95-.1,1.43-.03,1.02-.3,1.2-1.19.64-2.76-1.74-5.5-3.52-8.27-5.26-2.95-1.85-5.91-3.68-8.87-5.52-.4-.25-.77-.54-1.39-.97Z"/><path class="cls-1" d="m92.22,115.11c-6.71,3.96-13.43,7.92-20.38,12.02-.13-1.56-.29-2.75-.28-3.94,0-.32.46-.74.8-.95,3.49-2.16,7-4.28,10.51-6.41,1.66-1.01,3.34-2,5.02-2.97.29-.16.75-.35.98-.23,1.15.62,2.24,1.33,3.36,2.01,0,.16,0,.31,0,.47Z"/><path class="cls-1" d="m92.63,147.19c-.67.46-1.07.67-1.38.96-1.71,1.61-3.24,1.1-5.05-.04-4.27-2.69-8.67-5.18-13.04-7.71-.95-.55-1.49-1.09-1.27-2.33.16-.93-.13-1.93-.22-2.9.11-.09.22-.17.33-.26,6.81,4.06,13.62,8.11,20.63,12.29Z"/><path class="cls-1" d="m98.56,131.16c0-3.64,0-7.28,0-10.93,0-1.22.22-1.29,1.37-.83,1.83.73,2.63,1.8,2.55,3.96-.2,5.44-.08,10.89-.06,16.33,0,.87-.09,1.54-1.05,1.92-.63.25-1.14.8-1.73,1.16-.25.15-.59.16-.89.24-.06-.27-.18-.54-.18-.81-.01-3.68,0-7.36,0-11.04h0Z"/></g><path class="cls-1" d="m252.12,66.73l26.55-26.98c.76-.77,2.05-.61,2.59.33l5.5,9.48c.46.8.18,1.82-.63,2.27l-31.83,17.5c-.24.13-.52.2-.79.2h-.22c-1.46,0-2.19-1.76-1.17-2.8Z"/><path class="cls-1" d="m636.05,132.49l-4.3-7.25c-.23-.38-.2-.87.07-1.23l.58-.77c.44-.59,1.31-.56,1.71.06l4.73,7.21c.31.47.21,1.11-.22,1.46l-1.01.82c-.5.4-1.22.27-1.55-.29Z"/><path class="cls-1" d="m635.38,141.21l-2.95-7.06c-.06-.16-.06-.37.02-.51l.85-1.61c.09-.17.24-.16.33.02l3.34,7.23c.08.18.06.46-.05.59l-1.24,1.44c-.1.11-.23.07-.3-.1Z"/><path class="cls-1" d="m183.83,125.03l-1.71,7.53,9.07,4.96s.17-11.63,0-11.63-7.35-.86-7.35-.86Z"/><rect class="cls-1" x="193.53" y="134.91" width="5.89" height="5.89" rx="2.82" ry="2.82"/><path class="cls-1" d="m174.54,107.68c-.41-.42-1.1-.42-1.49.02-2.46,2.7-5.36,4.76-8.69,6.17-3.66,1.55-7.67,2.33-12.01,2.33-5.09,0-9.59-1.15-13.5-3.44-3.91-2.3-6.95-5.46-9.12-9.5-2.17-4.03-3.26-8.66-3.26-13.87s1.09-9.99,3.26-13.97c2.17-3.97,5.21-7.11,9.12-9.4,3.91-2.3,8.41-3.45,13.5-3.45,4.34,0,8.35.78,12.01,2.33,3.33,1.42,6.23,3.47,8.69,6.17.4.43,1.08.44,1.49.02l11.95-12.11c.38-.39.41-1.01.04-1.42-4.1-4.61-9.01-8.18-14.73-10.72-6.02-2.67-12.51-4-19.46-4-8.82,0-16.79,2.05-23.93,6.15-7.14,4.1-12.76,9.65-16.85,16.67-4.1,7.02-6.15,14.93-6.15,23.74s2.05,16.57,6.15,23.65c4.1,7.08,9.71,12.66,16.85,16.76,7.14,4.1,15.11,6.15,23.93,6.15,6.95,0,13.44-1.34,19.46-4,5.72-2.54,10.63-6.11,14.73-10.72.36-.41.34-1.03-.04-1.42l-11.95-12.11Z"/><path class="cls-1" d="m257.88,50.12c-2.28-2.11-4.69-3.73-7.21-4.87-3.6-1.61-7.63-2.42-12.1-2.42-10.18,0-17.78,3.51-22.81,10.52-.16.22-.31.46-.47.68v-7.76c0-.88-.71-1.58-1.58-1.58h-17.31c-.88,0-1.58.71-1.58,1.58v86.21c0,.88.71,1.58,1.58,1.58h17.31c.88,0,1.58-.71,1.58-1.58v-48.13c0-7.7,1.86-13.34,5.59-16.95,3.72-3.6,8.44-5.4,14.15-5.4,2.61,0,4.9.37,6.89,1.12,1.54.58,2.98,1.46,4.3,2.64.64.57,1.61.56,2.21-.06l9.6-9.87c1.57-1.61,1.51-4.2-.14-5.73Z"/><path class="cls-1" d="m325.96,48.27h-17.79c-.74,0-1.35.6-1.35,1.35v49.68c0,6.58-1.58,11.64-4.75,15.18-3.17,3.54-7.73,5.31-13.69,5.31-3.85,0-7.17-.81-9.96-2.42-2.79-1.61-4.91-3.94-6.33-6.98-1.43-3.04-2.14-6.73-2.14-11.08v-28.96c0-.99-1.04-1.65-1.93-1.21l-17.79,8.61c-.46.23-.76.7-.76,1.21v21.28c0,7.7,1.64,14.5,4.93,20.39,3.29,5.9,7.88,10.52,13.78,13.87,5.9,3.35,12.63,5.03,20.2,5.03s14.46-1.65,20.3-4.93c5.83-3.29,10.4-7.88,13.69-13.78,3.29-5.9,4.93-12.76,4.93-20.58v-50.61c0-.74-.6-1.35-1.35-1.35Z"/><path class="cls-1" d="m459.15,46.93c-5.21-2.73-11.05-4.1-17.5-4.1s-12.14,1.4-17.41,4.19c-4.52,2.39-8.32,5.59-11.43,9.58-.42.55-1.26.52-1.65-.04-2.82-4.05-6.43-7.26-10.84-9.63-5.09-2.73-10.8-4.1-17.13-4.1s-12.04,1.4-17.13,4.19c-2.54,1.39-4.81,3.06-6.82,5-.65.63-1.74.15-1.74-.76v-5.53c0-.57-.46-1.04-1.04-1.04h-18.41c-.57,0-1.04.46-1.04,1.04v87.31c0,.57.46,1.04,1.04,1.04h18.41c.57,0,1.04-.46,1.04-1.04v-52.22c0-3.97.87-7.36,2.61-10.15,1.74-2.79,4.06-4.93,6.98-6.42,2.92-1.49,6.24-2.23,9.96-2.23,5.46,0,10.06,1.65,13.78,4.93,3.72,3.29,5.59,7.91,5.59,13.87v52.22c0,.57.46,1.04,1.04,1.04h18.41c.57,0,1.04-.46,1.04-1.04v-52.22c0-3.97.87-7.36,2.61-10.15,1.74-2.79,4.1-4.93,7.08-6.42,2.98-1.49,6.27-2.23,9.87-2.23,5.46,0,10.06,1.65,13.78,4.93,3.72,3.29,5.59,7.91,5.59,13.87v52.22c0,.57.46,1.04,1.04,1.04h18.41c.57,0,1.04-.46,1.04-1.04v-56.69c0-6.95-1.55-12.91-4.66-17.88-3.1-4.96-7.26-8.81-12.48-11.55Z"/><path class="cls-1" d="m553.97,49.07c-6.52-4.16-13.81-6.24-21.88-6.24-6.7,0-12.73,1.46-18.06,4.38-3.62,1.98-6.72,4.47-9.31,7.45V1.04c0-.57-.46-1.04-1.04-1.04h-18.41c-.57,0-1.04.46-1.04,1.04v132c0,.57.46,1.04,1.04,1.04h18.41c.57,0,1.04-.46,1.04-1.04v-8.76c2.54,2.91,5.57,5.34,9.12,7.28,5.34,2.92,11.42,4.38,18.25,4.38,8.07,0,15.36-2.05,21.88-6.15,6.52-4.1,11.67-9.65,15.46-16.67,3.79-7.01,5.68-14.87,5.68-23.56s-1.89-16.73-5.68-23.74c-3.79-7.01-8.94-12.6-15.46-16.76Zm-3.17,54.47c-2.17,4.1-5.15,7.29-8.94,9.59-3.79,2.3-8.16,3.44-13.13,3.44s-9.37-1.15-13.22-3.44c-3.85-2.3-6.83-5.49-8.94-9.59-2.11-4.1-3.17-8.81-3.17-14.15s1.05-10.06,3.17-14.15c2.11-4.1,5.09-7.29,8.94-9.59,3.85-2.3,8.25-3.45,13.22-3.45s9.34,1.15,13.13,3.45c3.79,2.3,6.76,5.49,8.94,9.59,2.17,4.1,3.26,8.82,3.26,14.15s-1.09,10.06-3.26,14.15Z"/><polygon class="cls-1" points="46.85 59.8 54.94 59.8 54.94 80.21 64.26 80.21 64.26 59.8 72.35 59.8 72.35 52.57 46.85 52.57 46.85 59.8"/><polygon class="cls-1" points="92.68 62.36 84.08 62.36 84.08 52.57 74.76 52.57 74.76 80.21 84.08 80.21 84.08 70.02 92.68 70.02 92.68 80.21 102 80.21 102 52.57 92.68 52.57 92.68 62.36"/><path class="cls-1" d="m644.62,94.32c-2.23-3.41-5.12-6.14-8.66-8.19-3.54-2.05-7.26-3.66-11.17-4.84-3.91-1.18-7.64-2.26-11.17-3.26-3.54-.99-6.42-2.17-8.66-3.54-2.23-1.36-3.35-3.29-3.35-5.77,0-2.36,1.12-4.16,3.35-5.4,2.23-1.24,5.4-1.86,9.5-1.86,4.34,0,8.19.81,11.55,2.42,3.17,1.53,6,3.77,8.5,6.74.24.28.66.3.92.04l12.17-12.17c.22-.22.25-.57.06-.82-3.67-4.87-8.19-8.54-13.55-11.02-1.18-.54-2.41-1.02-3.68-1.45l-4.34,10.02h-4.08l1.47-11.73c-2.68-.43-5.49-.66-8.46-.66-6.83,0-12.69,1.12-17.6,3.35-4.91,2.23-8.69,5.4-11.36,9.5-2.67,4.1-4,9-4,14.71,0,5.34,1.12,9.68,3.35,13.04,2.24,3.35,5.12,5.99,8.66,7.91,3.54,1.93,7.26,3.44,11.17,4.56,3.91,1.12,7.63,2.21,11.17,3.26,3.54,1.06,6.42,2.33,8.66,3.82,2.23,1.49,3.35,3.6,3.35,6.33s-1.18,4.59-3.54,5.96c-2.36,1.37-5.84,2.05-10.43,2.05-5.09,0-9.65-.9-13.69-2.7-3.85-1.71-7.27-4.25-10.27-7.6-.24-.27-.65-.28-.9-.03l-12.16,12.16c-.23.23-.25.6-.04.85,2.77,3.29,6,6.09,9.69,8.4,3.85,2.42,8.07,4.28,12.66,5.59,4.59,1.3,9.37,1.96,14.34,1.96,7.2,0,13.37-1.21,18.5-3.64l-2.14-3.5c-.52-.85-.46-1.95.15-2.74l1.16-1.5c.48-.62,1.2-.97,1.99-.94.79.02,1.49.41,1.93,1.06l2.7,4c.16-.13.32-.25.48-.38,6.08-5.09,9.12-11.98,9.12-20.67,0-5.46-1.12-9.9-3.35-13.31Z"/></svg>