<?xml version="1.0" encoding="UTF-8"?><svg id="Layer_1" xmlns="http://www.w3.org/2000/svg" viewBox="0 0 145.34 135.31"><defs><style>.cls-1{fill:#fafbfd;}</style></defs><path class="cls-1" d="m143.43,73.2l-33.48-14.43V16.07l-1.91-.82L72.67,0l-35.38,15.25-1.91.82v42.7L1.91,73.2l-1.91.82v45.21l35.38,15.25,1.91.82,1.91-.82,31.57-13.61,1.91-.82,1.91.82,31.57,13.61,1.91.82,1.91-.82,35.38-15.25v-45.21l-1.91-.82Zm-108.05,30.78v26.35l-31.57-13.61v-38.55l31.57,13.61v12.2Zm1.91-15.53l-1.91-.82-28.66-12.35,28.66-12.35,1.91-.82,1.91.82,13.38,5.77,15.28,6.59-28.66,12.35-1.91.82Zm33.48,26.63v1.64l-.5.22-2.41,1.04-28.66,12.35v-38.55l31.57-13.61v36.91Zm0-71.56v28.86h0s-15.78-6.8-15.78-6.8l-15.28-6.59-.5-.22h0V20.22l31.57,13.61v9.69Zm1.91-13.02l-30.57-13.17,30.57-13.17,30.57,13.17-30.57,13.17Zm33.48-10.28v38.55h0s-.5.22-.5.22l-15.28,6.59-15.78,6.8h0v-38.55l31.57-13.61Zm0,81.25v28.86l-28.66-12.35-2.41-1.04-.5-.22v-38.55l31.57,13.61v9.69Zm1.91-13.02l-1.91-.82-28.66-12.35,15.28-6.59,13.38-5.77,1.91-.82,1.91.82,28.66,12.35-28.66,12.35-1.91.82Zm33.48,28.27l-31.57,13.61v-38.55l31.57-13.61v38.55Z"/></svg>